<svg id="Filled_stroke_Ex" height="512" viewBox="0 0 512 512" width="512" xmlns="http://www.w3.org/2000/svg" data-name="Filled stroke Ex"><g><g><path d="m478 40h-270v200h81.778l14.222 40 72.889-40h101.111a10 10 0 0 0 10-10v-180a10 10 0 0 0 -10-10z" fill="#feddab"/><path d="m315.725 230.92 45.255-45.255 62.226-5.657 16.794-62.401-11.138-11.138-39.598 39.598-22.627-22.627 39.598-39.598-11.842-11.842-61.697 17.499-5.657 62.225-45.255 45.255z" fill="#fa5d3f"/></g><g><path d="m360 416-6.684-66.844a20 20 0 0 0 -13.936-17.1l-115.38-36.056h-112l-88 27.5v164.5h336v-40a16 16 0 0 0 16-16 16 16 0 0 0 -16-16z" fill="#d4d580"/><g><path d="m224 296c-27.213 38.876-84.787 38.876-112 0l16-56h80z" fill="#ffd4cf"/><path d="m211.414 251.95-3.414-11.95h-80l-3.472 12.153 27.316 13.658a36.2 36.2 0 0 0 16.1 3.8 36.186 36.186 0 0 0 16.264-3.883z" fill="#fbb8b0"/><path d="m244 144h-12v-32h-128v32h-12a20 20 0 0 0 -20 20v8a20 20 0 0 0 20 20h12v13.459a30 30 0 0 0 16.583 26.833l38.417 19.208a20 20 0 0 0 17.979-.045l38.575-19.534a30 30 0 0 0 16.446-26.765v-13.156h12a20 20 0 0 0 20-20v-8a20 20 0 0 0 -20-20z" fill="#ffd4cf"/><path d="m280 448h80v40h-80z" fill="#ffd4cf"/><path d="m248 88h-160l9.783-34.242a30 30 0 0 1 28.846-21.758h82.742a30 30 0 0 1 28.846 21.758z" fill="#fa5d3f"/><g fill="#fdcd87"><path d="m144 24h48v88h-48z"/><path d="m239.639 120h-143.278a20 20 0 0 1 -17.889-28.944l1.528-3.056h176l1.528 3.056a20 20 0 0 1 -17.889 28.944z"/><path d="m88 384h-32v-80l32-8z"/><path d="m248 384h32v-80l-32-8z"/><path d="m56 408-16 80h256l-16-80z"/></g><circle cx="72" cy="400" fill="#fa5d3f" r="24"/><circle cx="264" cy="400" fill="#fa5d3f" r="24"/><g><path d="m478 32h-222v16h222a2 2 0 0 1 2 2v38h16v-38a18.021 18.021 0 0 0 -18-18z"/><path d="m480 230a2 2 0 0 1 -2 2h-101.111a7.993 7.993 0 0 0 -3.849.987l-64.65 35.479-11.075-31.146a8 8 0 0 0 -7.538-5.32h-49.777v16h44.131l12.331 34.68a8 8 0 0 0 11.387 4.333l71.09-39.013h99.061a18.021 18.021 0 0 0 18-18v-126h-16z"/><path d="m287.441 202.636 45.259-45.255a7.994 7.994 0 0 0 2.31-4.933l5.16-56.752 51.891-14.718 2.864 2.864-33.942 33.941a8 8 0 0 0 0 11.314l22.628 22.627a8 8 0 0 0 11.315 0l33.94-33.941 2.211 2.211-14.144 52.552-56.677 5.154a8.008 8.008 0 0 0 -4.933 2.311l-45.255 45.255 11.315 11.313 43.206-43.206 59.341-5.4a8 8 0 0 0 7-5.889l16.8-62.4a8 8 0 0 0 -2.069-7.736l-11.141-11.136a8 8 0 0 0 -11.315 0l-33.94 33.942-11.315-11.314 33.943-33.94a8 8 0 0 0 0-11.314l-11.844-11.843a7.994 7.994 0 0 0 -7.839-2.043l-61.7 17.5a8 8 0 0 0 -5.785 6.972l-5.395 59.34-43.207 43.207z"/><path d="m312 80v-16h-24a8 8 0 0 0 -8 8v24h16v-16z"/><path d="m432 200v16h24a8 8 0 0 0 8-8v-24h-16v16z"/><path d="m367.355 409.152-2.6-25.948-15.915 1.596 3.2 32a8 8 0 0 0 7.96 7.2 8 8 0 0 1 0 16h-65.441l-4.336-21.679a31.941 31.941 0 0 0 -2.223-39.465v-54.475l49 15.311a11.981 11.981 0 0 1 8.36 10.26l1.88 18.848 15.92-1.592-1.885-18.844a27.956 27.956 0 0 0 -19.508-23.939l-53.767-16.806v-3.619a8 8 0 0 0 -6.06-7.761l-32-8a8 8 0 0 0 -9.282 4.585l-10.151-3.172-14.062-49.216 2.722-1.379a37.818 37.818 0 0 0 20.833-33.901v-5.156h4a28.032 28.032 0 0 0 28-28v-8a28.032 28.032 0 0 0 -28-28h-4v-8a28 28 0 0 0 24.684-40.52l-1.529-3.056a8 8 0 0 0 -7.155-4.424h-1.965l-8.126-28.439a38.161 38.161 0 0 0 -36.538-27.561h-9.371a8 8 0 0 0 -8-8h-48a8 8 0 0 0 -8 8h-9.371a38.161 38.161 0 0 0 -36.538 27.561l-8.126 28.439h-1.965a8 8 0 0 0 -7.155 4.421l-1.529 3.057a28 28 0 0 0 24.684 40.522v8h-4a28.032 28.032 0 0 0 -28 28v8a28.032 28.032 0 0 0 28 28h4v5.459a37.792 37.792 0 0 0 21.006 33.988l2.478 1.239-13.991 48.966-10.151 3.172a8 8 0 0 0 -9.282-4.585l-32 8a8 8 0 0 0 -6.06 7.761v3.619l-26.386 8.245a8 8 0 0 0 -5.614 7.636v36.5h16v-30.619l16-5v54.475a31.941 31.941 0 0 0 -2.223 39.465l-12.336 61.679h-1.441v-104h-16v112a8 8 0 0 0 8 8h336a8 8 0 0 0 8-8v-33.371a24 24 0 0 0 -.645-45.477zm-103.355-25.152a16 16 0 1 1 -16 16 16.019 16.019 0 0 1 16-16zm8-73.754v58.766a32.127 32.127 0 0 0 -16 0v-62.766zm-28-158.246a12.013 12.013 0 0 1 12 12v8a12.013 12.013 0 0 1 -12 12h-4v-32zm-34.629-112a22.092 22.092 0 0 1 21.153 15.956l6.876 24.044h-37.4v-40zm-25.371-8v48h-32v-48zm-78.524 23.956a22.092 22.092 0 0 1 21.153-15.956h9.371v40h-37.395zm-19.323 50.353a11.737 11.737 0 0 1 -1.113-10.309h165.92a12.008 12.008 0 0 1 -11.32 16h-143.28a11.77 11.77 0 0 1 -10.207-5.691zm5.847 77.691a12.013 12.013 0 0 1 -12-12v-8a12.013 12.013 0 0 1 12-12h4v32zm20 21.459v-77.459h112v77.156a21.894 21.894 0 0 1 -12.062 19.627l-38.573 19.533a12.051 12.051 0 0 1 -10.788.028l-38.415-19.207a21.881 21.881 0 0 1 -12.162-19.678zm43.421 53.2a28.12 28.12 0 0 0 25.172-.064l21.314-10.795 13.316 46.6a60.371 60.371 0 0 1 -94.446 0l13.267-46.432zm12.579 74.498a75.3 75.3 0 0 0 58.979-27.845l13.021 4.069v69.475a31.869 31.869 0 0 0 -8 21.144h-128a31.869 31.869 0 0 0 -8-21.144v-69.475l13.021-4.069a75.3 75.3 0 0 0 58.979 27.845zm-112 66.843a16 16 0 1 1 16 16 16.019 16.019 0 0 1 -16-16zm24-93.754v62.766a32.127 32.127 0 0 0 -16 0v-58.766zm-30.241 173.754 10.08-50.4a31.989 31.989 0 0 0 39.866-13.6h136.595a31.989 31.989 0 0 0 39.866 13.6l10.08 50.4zm302.241 0h-49.441l-4.8-24h54.241z"/><path d="m128 144h16v24h-16z"/><path d="m192 144h16v24h-16z"/><path d="m160 224h16a24 24 0 0 0 24-24h-64a24 24 0 0 0 24 24z"/></g></g></g></g></svg>