<svg id="Capa_1" enable-background="new 0 0 512 512" height="512" viewBox="0 0 512 512" width="512" xmlns="http://www.w3.org/2000/svg"><g><g><path d="m377.929 475.824h-6.497v-13.086c0-15.088-12.231-27.318-27.318-27.318h-168.63c-15.076 0-27.297 12.221-27.297 27.297v11.734h-13.429c-8.298 0-15.024 6.727-15.024 15.024 0 8.298 6.727 15.024 15.024 15.024h243.172c7.919 0 14.338-6.419 14.338-14.338-.001-7.918-6.42-14.337-14.339-14.337z" fill="#ffd597"/><path d="m392.237 491.146c-.509 7.589-7.084 13.354-14.69 13.354h-28.897c7.92 0 14.33-6.42 14.33-14.34 0-3.96-1.6-7.54-4.2-10.14-2.59-2.6-6.17-4.2-10.13-4.2-3.59 0-6.5-2.91-6.5-6.5v-6.58c0-15.09-12.23-27.32-27.32-27.32h29.28c15.088 0 27.32 12.232 27.32 27.32v13.08h6.5c3.96 0 7.55 1.6 10.14 4.2 2.803 2.814 4.459 6.777 4.167 11.126z" fill="#fcc16d"/><g><path d="m334.741 152.84v326.18h-147.24v-255.52c0-7.53 3.42-14.64 9.3-19.34l64.16-51.32z" fill="#fcb44d"/><path d="m334.741 212.12h-.001v-59.278h-25.525v59.278h-57.964v26.21c0 8.06 6.19 14.99 14.24 15.37 8.59.4 15.68-6.44 15.68-14.94v64.79c0 8.05 6.19 14.98 14.23 15.36.059.003.119.005.178.007 7.56.265 13.636 6.269 13.636 13.834v146.273h25.525v-198.053s.001-.001.001-.001z" fill="#fb9927"/><g><path d="m269.969 111.491c-2.471 5.837-9.698 7.992-14.896 4.365-9.204-6.421-20.122-18.015-20.122-36.887 0-29.292 26.301-41.05 31.672-67.417.815-4 5.752-5.44 8.565-2.482 8.592 9.034 21.384 25.919 21.384 46.365.001 25.347-19.658 39.653-26.603 56.056z" fill="#fcb44d"/><path d="m296.576 55.435c0 25.343-19.664 39.649-26.607 56.053-2.468 5.839-9.702 7.996-14.899 4.374-9.2-6.421-20.116-18.019-20.116-36.89 0-2.488.191-4.856.542-7.113 5.498 9.481 13.793 15.575 19.835 18.701 9.116 4.717 33.138-34.252 35.847-58.41 3.201 6.941 5.398 14.807 5.398 23.285z" fill="#fc7d4b"/></g><g><path d="m330.916 137.251h-9.744c-4.411 0-8.151 2.836-9.521 6.78h-50.366c-5.541 0-10.033 4.492-10.033 10.033v57.071c0 8.054 6.19 14.985 14.235 15.364 8.59.405 15.681-6.44 15.681-14.941v64.79c0 8.054 6.19 14.985 14.235 15.364 8.59.404 15.681-6.44 15.681-14.941v-35.081c0 8.501 7.091 15.346 15.681 14.941 8.046-.379 14.235-7.309 14.235-15.364v-93.928c.002-5.572-4.514-10.088-10.084-10.088z" fill="#ffd597"/><path d="m341 147.34v93.93c0 8.05-6.19 14.98-14.23 15.36-4.6.21-8.77-1.65-11.65-4.73 2.6-2.8 4.17-6.57 4.17-10.63v-93.93c0-3.33-1.62-6.29-4.1-8.12 1.67-1.24 3.74-1.97 5.98-1.97h9.75c5.57 0 10.08 4.52 10.08 10.09z" fill="#fcc16d"/></g></g><path d="m174.466 458.875h40.144c2.522 0 4.952.95 6.805 2.661l16.269 15.017c1.853 1.711 4.283 2.661 6.805 2.661h11.591c3.52 0 6.782-1.844 8.596-4.86l14.773-24.551c1.815-3.016 5.077-4.86 8.596-4.86h24.07c2.661 0 5.213 1.057 7.094 2.939l11.529 11.529h12.651v36.119h-168.923z" fill="#ffd597"/></g><g><path d="m378.932 468.347v-5.608c0-19.199-15.619-34.818-34.818-34.818h-1.874v-78.486c0-4.142-3.357-7.5-7.5-7.5s-7.5 3.358-7.5 7.5v95.871l-2.728-2.728c-3.312-3.311-7.715-5.134-12.397-5.134h-24.069c-6.114 0-11.871 3.254-15.023 8.493l-14.771 24.55c-.456.757-1.288 1.228-2.171 1.228h-11.591c-.639 0-1.248-.238-1.718-.672l-16.268-15.016c-3.248-2.999-7.472-4.651-11.894-4.651h-19.609v-227.878c0-5.274 2.362-10.188 6.481-13.483l42.271-33.808v34.928c0 12.251 9.392 22.291 21.382 22.855 2.954.138 5.838-.286 8.534-1.232v43.589c0 12.251 9.393 22.291 21.383 22.855.366.017.73.026 1.095.026 5.799 0 11.262-2.182 15.481-6.208 4.421-4.218 6.957-10.142 6.957-16.251v-13.88c2.694.946 5.58 1.367 8.534 1.232.041-.002.08-.01.12-.012v56.224c0 4.142 3.357 7.5 7.5 7.5s7.5-3.358 7.5-7.5v-63.191c3.885-4.118 6.263-9.716 6.263-15.876v-93.929c0-9.697-7.89-17.586-17.587-17.586h-9.743c-5.516 0-10.595 2.585-13.865 6.78h-7.003c-4.143 0-7.5 3.358-7.5 7.5s3.357 7.5 7.5 7.5h3.848v16.365c0 4.142 3.357 7.5 7.5 7.5s7.5-3.358 7.5-7.5v-21.865c0-.09-.01-.176-.013-.265.437-.569 1.133-1.015 2.034-1.015h9.743c1.427 0 2.587 1.16 2.587 2.586v93.929c0 4.157-3.18 7.688-7.088 7.872-2.078.095-4.029-.631-5.518-2.051-1.49-1.422-2.312-3.339-2.312-5.398 0-.34-.031-.672-.074-1 .044-.328.074-.66.074-1v-12.659c0-4.142-3.357-7.5-7.5-7.5s-7.5 3.358-7.5 7.5v12.658c0 .34.031.672.074 1-.044.328-.074.66-.074 1v35.081c0 2.059-.821 3.976-2.312 5.398-1.488 1.419-3.432 2.146-5.517 2.051-3.908-.184-7.088-3.715-7.088-7.872v-64.79c0-.34-.031-.672-.074-1 .044-.328.074-.66.074-1v-19.576c0-4.142-3.357-7.5-7.5-7.5s-7.5 3.358-7.5 7.5v19.576c0 .34.031.672.074 1-.044.328-.074.66-.074 1 0 2.059-.821 3.976-2.312 5.398-1.489 1.42-3.433 2.151-5.518 2.052-3.907-.184-7.087-3.715-7.087-7.872v-57.071c0-1.396 1.136-2.533 2.532-2.533h9.917c4.143 0 7.5-3.358 7.5-7.5s-3.357-7.5-7.5-7.5h-2.582v-13.309c3.68-1.855 6.615-4.932 8.255-8.807 2.036-4.808 5.618-9.795 9.411-15.076 7.925-11.033 17.787-24.765 17.787-43.904 0-23.384-14.692-42.325-23.45-51.533-3.229-3.396-8.028-4.705-12.521-3.414-4.506 1.294-7.889 4.959-8.827 9.566-2.068 10.15-7.962 18.09-14.201 26.496-8.26 11.127-17.622 23.739-17.622 42.418 0 22.119 12.687 35.613 23.33 43.039.902.63 1.856 1.155 2.839 1.597v14.715c-5.831 2.851-9.867 8.827-9.867 15.744v2.935l-51.641 41.301c-7.697 6.157-12.112 15.34-12.112 25.197v204.425h-4.518c-19.188 0-34.797 15.61-34.797 34.797v4.234h-5.929c-12.42 0-22.524 10.104-22.524 22.524s10.106 22.525 22.526 22.525h38.275c4.143 0 7.5-3.358 7.5-7.5s-3.357-7.5-7.5-7.5h-38.275c-4.149 0-7.524-3.375-7.524-7.524s3.375-7.524 7.524-7.524h13.429c4.143 0 7.5-3.358 7.5-7.5v-11.734c0-10.917 8.881-19.797 19.797-19.797h4.518v8.455h-5.535c-4.143 0-7.5 3.358-7.5 7.5s3.357 7.5 7.5 7.5h40.145c.639 0 1.248.238 1.718.672l16.268 15.016c3.248 2.999 7.472 4.651 11.894 4.651h11.591c6.113 0 11.869-3.254 15.023-8.493l14.772-24.551c.455-.756 1.286-1.227 2.17-1.227h24.069c.677 0 1.313.264 1.791.742l11.528 11.529c1.407 1.407 3.314 2.197 5.304 2.197h12.65c4.143 0 7.5-3.358 7.5-7.5s-3.357-7.5-7.5-7.5h-1.148v-8.99h1.874c10.928 0 19.818 8.891 19.818 19.818v13.085c0 4.142 3.357 7.5 7.5 7.5h6.497c3.771 0 6.838 3.068 6.838 6.838s-3.068 6.837-6.839 6.837h-175.796c-4.143 0-7.5 3.358-7.5 7.5s3.357 7.5 7.5 7.5h175.796c12.041 0 21.838-9.797 21.838-21.838 0-11.706-9.257-21.29-20.835-21.815zm-136.48-389.378c0-13.72 6.797-22.876 14.666-33.478 6.124-8.25 12.433-16.749 15.711-27.848 7.126 8.308 16.245 22.022 16.245 37.792 0 14.311-7.61 24.906-14.971 35.153-4.295 5.979-8.352 11.627-11.04 17.978v.001c-.415.979-1.215 1.338-1.654 1.465-.512.146-1.276.208-2.045-.327-11.222-7.829-16.912-18.17-16.912-30.736z"/><path d="m311.652 213.286c4.143 0 7.5-3.358 7.5-7.5v-4.882c0-4.142-3.357-7.5-7.5-7.5s-7.5 3.358-7.5 7.5v4.882c0 4.142 3.357 7.5 7.5 7.5z"/><path d="m276.169 309.793c-4.143 0-7.5 3.358-7.5 7.5v78.542c0 11.595 9.434 21.029 21.029 21.029s21.028-9.434 21.028-21.029c0-4.142-3.357-7.5-7.5-7.5s-7.5 3.358-7.5 7.5c0 3.324-2.704 6.029-6.028 6.029s-6.029-2.705-6.029-6.029v-78.542c0-4.142-3.357-7.5-7.5-7.5z"/><path d="m227.452 258.862v48.992c0 4.142 3.357 7.5 7.5 7.5s7.5-3.358 7.5-7.5v-48.992c0-4.142-3.357-7.5-7.5-7.5s-7.5 3.358-7.5 7.5z"/></g></g></svg>